<?xml version="1.0" encoding="UTF-8" standalone="no"?>
<svg
   xmlns:dc="http://purl.org/dc/elements/1.1/"
   xmlns:cc="http://creativecommons.org/ns#"
   xmlns:rdf="http://www.w3.org/1999/02/22-rdf-syntax-ns#"
   xmlns:svg="http://www.w3.org/2000/svg"
   xmlns="http://www.w3.org/2000/svg"
   xmlns:sodipodi="http://sodipodi.sourceforge.net/DTD/sodipodi-0.dtd"
   xmlns:inkscape="http://www.inkscape.org/namespaces/inkscape"
   width="120pt"
   height="120pt"
   viewBox="0 0 200 200"
   version="1.1"
   id="svg2486"
   sodipodi:version="0.32"
   inkscape:version="0.46"
   sodipodi:docname="TrefoilKnot_01.svg"
   inkscape:output_extension="org.inkscape.output.svg.inkscape">
  <metadata
     id="metadata2511">
    <rdf:RDF>
      <cc:Work
         rdf:about="">
        <dc:format>image/svg+xml</dc:format>
        <dc:type
           rdf:resource="http://purl.org/dc/dcmitype/StillImage" />
      </cc:Work>
    </rdf:RDF>
  </metadata>
  <sodipodi:namedview
     inkscape:window-height="968"
     inkscape:window-width="1280"
     inkscape:pageshadow="2"
     inkscape:pageopacity="0.0"
     guidetolerance="10.0"
     gridtolerance="10.0"
     objecttolerance="10.0"
     borderopacity="1.0"
     bordercolor="#666666"
     pagecolor="#ffffff"
     id="base"
     showgrid="false"
     inkscape:zoom="1.3067333"
     inkscape:cx="114.90286"
     inkscape:cy="46.511503"
     inkscape:window-x="-4"
     inkscape:window-y="-4"
     inkscape:current-layer="svg2486" />
  <defs
     id="defs2488">
    <inkscape:perspective
       sodipodi:type="inkscape:persp3d"
       inkscape:vp_x="0 : 125 : 1"
       inkscape:vp_y="0 : 1000 : 0"
       inkscape:vp_z="250 : 125 : 1"
       inkscape:persp3d-origin="125 : 83.333333 : 1"
       id="perspective2513" />
    <clipPath
       id="clip0">
      <rect
         width="200"
         height="200"
         id="rect2491" />
    </clipPath>
  </defs>
  <path
     id="path2494"
     d="M 0,0 L 200,0 L 200,200 L 0,200 L 0,0 z"
     style="fill:none;stroke:#ffffff;stroke-width:0.1;stroke-linecap:butt;stroke-linejoin:miter;stroke-miterlimit:10" />
  <path
     id="path2498"
     d="M 93.398956,15.599747 C 108.12845,12.776001 123.13365,20.389191 132.29739,31.689575 C 143.57259,45.118637 148.65971,62.741379 149.54105,80.018753 C 149.98401,92.943802 147.49326,105.88356 142.78784,117.90243 C 135.51199,135.46809 124.95619,152.14925 109.89485,164.03897 C 107.48296,162.65706 105.11121,161.21078 102.77389,159.70999 C 108.41783,154.72711 114.2271,149.83615 118.78671,143.7885 C 130.74187,128.22578 139.56134,109.70233 141.31923,89.978058 C 142.49373,72.451004 138.78726,54.040878 128.3533,39.640686 C 121.99464,30.754318 112.17238,23.760864 101.02997,23.004608 C 90.549683,22.590134 80.888657,28.52504 74.191208,36.202667 C 64.790009,47.182343 60.239487,61.524445 58.841461,75.728561 C 56.106812,76.552887 53.418549,77.522247 50.773285,78.597549 C 51.333511,64.577164 55.149872,50.545502 62.517639,38.553406 C 69.463486,27.439133 80.259369,18.11586 93.398956,15.599747 z"
     style="fill:none;stroke:#000000;stroke-width:0.1;stroke-linecap:butt;stroke-linejoin:miter;stroke-miterlimit:10" />
  <path
     id="path2500"
     d="M 93.398956,15.599747 C 108.12845,12.776001 123.13365,20.389191 132.29739,31.689575 C 143.57259,45.118637 148.65971,62.741379 149.54105,80.018753 C 149.98401,92.943802 147.49326,105.88356 142.78784,117.90243 C 135.51199,135.46809 124.95619,152.14925 109.89485,164.03897 C 107.48296,162.65706 105.11121,161.21078 102.77389,159.70999 C 108.41783,154.72711 114.2271,149.83615 118.78671,143.7885 C 130.74187,128.22578 139.56134,109.70233 141.31923,89.978058 C 142.49373,72.451004 138.78726,54.040878 128.3533,39.640686 C 121.99464,30.754318 112.17238,23.760864 101.02997,23.004608 C 90.549683,22.590134 80.888657,28.52504 74.191208,36.202667 C 64.790009,47.182343 60.239487,61.524445 58.841461,75.728561 C 56.106812,76.552887 53.418549,77.522247 50.773285,78.597549 C 51.333511,64.577164 55.149872,50.545502 62.517639,38.553406 C 69.463486,27.439133 80.259369,18.11586 93.398956,15.599747 z"
     style="fill:#000000;fill-rule:nonzero;stroke:none" />
  <path
     id="path2502"
     d="M 52.3367,82.339767 C 68.481567,75.120453 86.465546,73.507401 103.95387,73.905609 C 115.20914,73.990738 126.64815,74.787079 137.41074,78.303467 C 137.67201,81.068481 137.77486,83.845367 137.6736,86.622925 C 125.5468,82.641434 112.68857,81.684677 99.99971,81.772141 C 86.750092,81.890411 73.286774,82.983246 60.757446,87.595261 C 42.798401,94.051147 26.431671,106.4809 17.53476,123.61052 C 13.591476,131.79286 10.959396,141.33128 13.663254,150.31045 C 16.296265,161.84018 26.409729,170.27501 37.434326,173.47672 C 54.131607,178.84361 72.257446,175.09146 87.972214,168.32153 C 90.258621,170.22192 92.66954,171.96417 95.091843,173.68845 C 81.767426,180.36499 66.934555,184.38042 51.963547,183.98366 C 40.064087,183.5498 27.869003,180.04552 18.58876,172.35745 C 8.736877,164.49789 3.54187,151.47577 4.789047,138.98613 C 5.909424,126.40183 12.171539,114.79196 20.289902,105.32024 C 29.107971,95.430832 40.128952,87.505219 52.3367,82.339767 z"
     style="fill:none;stroke:#000000;stroke-width:0.1;stroke-linecap:butt;stroke-linejoin:miter;stroke-miterlimit:10" />
  <path
     id="path2504"
     d="M 52.3367,82.339767 C 68.481567,75.120453 86.465546,73.507401 103.95387,73.905609 C 115.20914,73.990738 126.64815,74.787079 137.41074,78.303467 C 137.67201,81.068481 137.77486,83.845367 137.6736,86.622925 C 125.5468,82.641434 112.68857,81.684677 99.99971,81.772141 C 86.750092,81.890411 73.286774,82.983246 60.757446,87.595261 C 42.798401,94.051147 26.431671,106.4809 17.53476,123.61052 C 13.591476,131.79286 10.959396,141.33128 13.663254,150.31045 C 16.296265,161.84018 26.409729,170.27501 37.434326,173.47672 C 54.131607,178.84361 72.257446,175.09146 87.972214,168.32153 C 90.258621,170.22192 92.66954,171.96417 95.091843,173.68845 C 81.767426,180.36499 66.934555,184.38042 51.963547,183.98366 C 40.064087,183.5498 27.869003,180.04552 18.58876,172.35745 C 8.736877,164.49789 3.54187,151.47577 4.789047,138.98613 C 5.909424,126.40183 12.171539,114.79196 20.289902,105.32024 C 29.107971,95.430832 40.128952,87.505219 52.3367,82.339767 z"
     style="fill:#000000;fill-rule:nonzero;stroke:none" />
  <path
     id="path2506"
     d="M 153.62851,84.875732 C 165.97055,90.910156 176.7052,100.15553 184.69235,111.31943 C 190.81131,120.39208 195.40074,130.90591 195.63852,141.99255 C 195.94873,154.18378 190.60774,166.40074 181.03075,174.05405 C 169.39444,183.4154 153.6935,186.80774 139.02626,185.18527 C 123.73611,183.93057 108.9947,178.20692 96.312592,169.67574 C 80.89061,159.35463 69.539459,143.95377 61.665115,127.33235 C 56.670868,117.50302 53.271851,106.88367 51.470581,96.014374 C 53.925049,94.672745 56.471359,93.510117 59.057983,92.448105 C 61.100494,108.13388 67.426926,122.93907 75.708527,136.30702 C 85.483734,152.34645 100.3405,165.43007 117.98119,172.10614 C 129.97122,176.75475 143.18907,178.78275 155.94719,176.69435 C 166.77881,174.66122 177.6405,169.09863 183.3222,159.2899 C 188.3076,150.60649 188.90129,139.78311 185.48729,130.43123 C 179.97818,114.55592 167.58916,101.69089 153.05707,93.636734 C 153.10211,90.708817 153.38524,87.790955 153.62851,84.875732 z"
     style="fill:none;stroke:#000000;stroke-width:0.1;stroke-linecap:butt;stroke-linejoin:miter;stroke-miterlimit:10" />
  <path
     id="path2508"
     d="M 153.62851,84.875732 C 165.97055,90.910156 176.7052,100.15553 184.69235,111.31943 C 190.81131,120.39208 195.40074,130.90591 195.63852,141.99255 C 195.94873,154.18378 190.60774,166.40074 181.03075,174.05405 C 169.39444,183.4154 153.6935,186.80774 139.02626,185.18527 C 123.73611,183.93057 108.9947,178.20692 96.312592,169.67574 C 80.89061,159.35463 69.539459,143.95377 61.665115,127.33235 C 56.670868,117.50302 53.271851,106.88367 51.470581,96.014374 C 53.925049,94.672745 56.471359,93.510117 59.057983,92.448105 C 61.100494,108.13388 67.426926,122.93907 75.708527,136.30702 C 85.483734,152.34645 100.3405,165.43007 117.98119,172.10614 C 129.97122,176.75475 143.18907,178.78275 155.94719,176.69435 C 166.77881,174.66122 177.6405,169.09863 183.3222,159.2899 C 188.3076,150.60649 188.90129,139.78311 185.48729,130.43123 C 179.97818,114.55592 167.58916,101.69089 153.05707,93.636734 C 153.10211,90.708817 153.38524,87.790955 153.62851,84.875732 z"
     style="fill:#000000;fill-rule:nonzero;stroke:none" />
</svg>
